<?xml version="1.0" encoding="utf-8" ?>
<svg xmlns="http://www.w3.org/2000/svg" xmlns:xlink="http://www.w3.org/1999/xlink" width="1024" height="1024">
	<path fill="#4D2524" d="M590.703 160.636L589.725 163.586C588.104 170.493 583.826 177.234 580.075 183.203C562.349 211.414 550.992 215.46 526.684 234.575C497.296 257.684 471.97 289.567 464.707 326.982C476.633 315.646 488.352 304.732 501.716 295.068C549.192 260.734 610.341 240.208 669.119 241.637C740.951 243.384 806.297 277.936 855.165 329.499C909.068 386.373 934.595 462.41 932.39 540.205C930.176 618.321 899.265 693.919 841.988 747.77Q837.049 752.469 831.914 756.953Q826.779 761.437 821.458 765.698Q816.137 769.959 810.638 773.989Q805.14 778.019 799.475 781.811Q793.81 785.603 787.988 789.15Q782.166 792.697 776.198 795.992Q770.231 799.287 764.128 802.325Q758.025 805.363 751.798 808.138Q742.038 812.431 732.009 816.051C727.608 817.633 722.961 818.959 718.674 820.801C695.088 856.514 669.785 882.819 631.147 902.283C622.266 906.757 612.237 911.495 602.532 913.593C615.428 920.025 643.438 932.461 648.382 946.708Q648.578 947.258 648.718 947.825Q648.858 948.393 648.941 948.971Q649.024 949.549 649.049 950.133Q649.075 950.716 649.042 951.299Q649.009 951.883 648.919 952.46Q648.828 953.037 648.681 953.602Q648.534 954.167 648.331 954.715Q648.128 955.263 647.872 955.788C645.554 960.544 640.574 963.104 635.736 964.62C608.649 973.106 569.899 965.675 542.919 958.112C537.958 956.721 531.189 955.445 526.666 953.141C516.595 949.695 506.269 944.339 495.882 942.282C488.938 940.907 481.504 942.126 474.461 942.067C463.022 941.972 451.332 941.04 439.982 939.628C395.702 934.119 352.044 917.396 313.492 895.266C303.849 889.73 295.074 882.707 285.442 877.162L284.935 876.874C251.757 852.521 222.734 825.009 197.471 792.459C137.364 715.014 113.398 616.673 125.741 519.968C137.661 426.573 180.325 336.648 235.885 261.343C254.02 236.762 275.236 214.513 292.416 189.22C300.382 177.492 306.907 165.026 313.893 152.713C328.267 127.38 344.851 102.01 368.255 84.0637Q369.622 83.0127 371.014 81.9954Q372.407 80.9781 373.824 79.9951Q375.24 79.0121 376.681 78.064Q378.121 77.116 379.584 76.2033Q381.047 75.2907 382.532 74.4141Q384.017 73.5375 385.523 72.6974Q387.029 71.8573 388.555 71.0543Q390.081 70.2513 391.627 69.4857Q393.172 68.7202 394.735 67.9926Q396.299 67.2651 397.879 66.5759Q399.46 65.8867 401.057 65.2364Q402.654 64.5861 404.267 63.9749Q405.879 63.3638 407.506 62.7922Q409.133 62.2206 410.773 61.689Q412.414 61.1573 414.067 60.6658Q415.72 60.1744 417.384 59.7235Q419.048 59.2726 420.723 58.8624Q422.398 58.4523 424.083 58.0832Q425.767 57.7141 427.46 57.3863Q429.153 57.0584 430.854 56.772Q432.554 56.4856 434.261 56.2408Q435.968 55.996 437.68 55.793Q439.393 55.59 441.11 55.4289Q442.827 55.2678 444.547 55.1486Q446.267 55.0295 447.99 54.9524Q449.712 54.8753 451.437 54.8403Q453.161 54.8053 454.885 54.8125Q456.609 54.8196 458.333 54.8688Q460.057 54.9181 461.779 55.0094Q463.501 55.1007 465.22 55.2341Q466.939 55.3675 468.655 55.5428Q470.37 55.7181 472.081 55.9353Q473.372 56.0999 474.659 56.2935Q475.947 56.4871 477.229 56.7096Q478.512 56.9322 479.789 57.1835Q481.066 57.4349 482.337 57.7149Q483.608 57.9949 484.873 58.3035Q486.138 58.6121 487.395 58.9491Q488.652 59.286 489.902 59.6512Q491.151 60.0164 492.392 60.4097Q493.633 60.8029 494.864 61.2239Q496.096 61.645 497.318 62.0937Q498.54 62.5423 499.751 63.0184Q500.963 63.4945 502.163 63.9977Q503.364 64.5009 504.553 65.0311Q505.742 65.5612 506.918 66.1179Q508.095 66.6747 509.259 67.2578Q510.422 67.8409 511.573 68.45Q512.723 69.0591 513.859 69.694Q514.996 70.3289 516.118 70.9892Q517.239 71.6495 518.346 72.3349Q519.453 73.0203 520.544 73.7304Q521.634 74.4405 522.709 75.175Q523.784 75.9095 524.842 76.6681Q525.899 77.4266 526.94 78.2087Q527.98 78.9908 529.003 79.7962Q530.026 80.6015 531.03 81.4297Q532.034 82.2579 533.02 83.1085Q534.005 83.959 534.971 84.8316Q535.937 85.7041 536.883 86.5982Q537.829 87.4922 538.755 88.4073Q539.68 89.3225 540.585 90.2582Q541.49 91.1939 542.374 92.1498Q543.257 93.1057 544.119 94.0812C550.582 101.38 556.135 109.937 563.455 116.401C570.716 122.813 582.025 125.474 587.721 133.367C593.069 140.777 591.911 152.097 590.703 160.636ZM538.957 145.555L539.358 144.892C540.784 142.487 541.433 139.675 542.935 137.301C547.33 130.348 557.776 128.18 565.177 126.037C562.273 123.99 559.407 121.951 556.674 119.677C554.549 121.018 552.52 122.409 549.895 121.838C544.646 120.696 540.758 115.471 538.177 111.073C536.247 107.784 533.783 102.637 534.62 98.7661C534.891 97.5104 535.485 96.3074 536.147 95.2177C517.761 73.7938 490.802 63.9898 463.094 61.8745Q461.493 61.7432 459.889 61.6512Q458.286 61.5593 456.68 61.5067Q455.075 61.4541 453.468 61.4409Q451.862 61.4277 450.256 61.4539Q448.65 61.4801 447.045 61.5458Q445.44 61.6114 443.837 61.7163Q442.234 61.8213 440.634 61.9656Q439.034 62.1098 437.438 62.2933Q435.842 62.4768 434.252 62.6994Q432.661 62.9219 431.076 63.1835Q429.491 63.445 427.913 63.7453Q426.335 64.0457 424.765 64.3846Q423.194 64.7236 421.633 65.101Q420.072 65.4784 418.52 65.894Q416.968 66.3095 415.427 66.763Q413.886 67.2166 412.357 67.7077Q410.827 68.1989 409.31 68.7275Q407.794 69.2561 406.29 69.8217Q404.787 70.3873 403.297 70.9896Q401.808 71.592 400.334 72.2307Q398.86 72.8694 397.403 73.544Q395.945 74.2187 394.504 74.9289Q393.063 75.6391 391.64 76.3845Q390.217 77.1298 388.813 77.9099Q387.409 78.6899 386.024 79.5042Q384.639 80.3184 383.275 81.1664Q381.911 82.0144 380.568 82.8956Q379.225 83.7768 377.904 84.6907Q376.583 85.6045 375.284 86.5506Q373.986 87.4966 372.711 88.4742Q371.437 89.4517 370.186 90.4603Q368.936 91.4689 367.711 92.5078C335.597 120.225 320.81 161.01 297.65 195.443C290.733 205.727 282.534 215.204 274.704 224.795Q258.202 244.769 242.714 265.539C181.922 348.306 138.319 442.957 131.146 546.406Q130.838 550.74 130.635 555.081Q130.433 559.422 130.337 563.766Q130.241 568.111 130.252 572.456Q130.262 576.802 130.379 581.146Q130.495 585.489 130.718 589.829Q130.941 594.169 131.271 598.502Q131.6 602.835 132.035 607.158Q132.47 611.482 133.011 615.794Q133.551 620.105 134.198 624.402Q134.844 628.7 135.595 632.98Q136.346 637.26 137.201 641.52Q138.057 645.781 139.017 650.019Q139.976 654.257 141.039 658.47Q142.102 662.684 143.268 666.87Q144.434 671.056 145.702 675.212Q146.97 679.369 148.339 683.493Q149.708 687.617 151.178 691.706Q152.648 695.796 154.217 699.848Q155.786 703.9 157.455 707.912Q159.123 711.925 160.888 715.896Q162.654 719.866 164.517 723.792Q166.379 727.718 168.337 731.598Q170.295 735.477 172.347 739.307Q174.4 743.138 176.545 746.917Q178.69 750.695 180.928 754.421Q183.165 758.146 185.493 761.815Q187.82 765.485 190.237 769.096Q192.654 772.707 195.159 776.259Q197.663 779.81 200.254 783.298Q202.844 786.787 205.52 790.212Q208.195 793.636 210.953 796.994Q213.711 800.352 216.551 803.641C278.652 874.896 367.381 927.232 462.974 933.799C474.82 934.613 487.776 935.174 499.534 933.652C533.161 949.369 577.441 962.259 614.866 959.937C621.383 959.533 627.978 958.952 634.171 956.756C636.5 955.93 640.094 954.475 641.179 952.033C641.816 950.6 641.348 949.007 640.587 947.734C632.496 934.201 584.444 914.097 568.823 908.109C564.443 906.43 560.051 904.718 555.616 903.19C552.932 902.266 549.936 901.699 547.372 900.487C545.712 899.702 545.168 899.022 545.06 897.279C546.851 895.795 548.816 896.026 551.042 896.237C567.553 897.795 578.809 904.257 593.823 908.999C603.417 906.465 612.451 902.298 621.377 898.024C659.296 879.871 690.887 852.176 712.089 815.698C720.276 801.611 732.659 773.557 727.97 757.083C727.516 755.487 726.804 754.099 725.294 753.249C722.884 751.89 719.179 752.524 716.686 753.312C711.41 754.979 705.437 759.366 699.809 756.605C696.628 755.046 695.107 751.616 694.184 748.383C692.378 742.056 693.567 731.139 687.1 727.414C685.2 726.32 683.013 726.319 680.967 726.996C670.597 730.428 661.318 748.949 657.096 758.087C652.073 768.959 647.865 780.199 642.745 791.028C625.899 826.654 602.776 855.91 565.315 871.272C595.018 866.795 616.472 850.851 634.124 826.959Q637.909 821.776 641.392 816.385Q644.875 810.994 648.043 805.413Q651.213 799.832 654.057 794.079Q656.902 788.326 659.414 782.42C663.041 773.94 665.908 765.147 670.118 756.924C661.09 796.816 639.205 839.088 603.884 861.586C585.576 873.247 561.333 879.034 539.879 874.245C534.037 872.941 529.138 870.296 523.95 867.422C522.456 866.594 520.597 865.238 518.988 864.769C498.528 849.051 482.393 832.489 468.05 810.99C426.1 748.112 417.582 669.051 426.994 595.522C430.217 570.345 436.03 545.631 441.02 520.773C405.575 511.103 371.181 493.719 344.88 467.726C337.192 460.127 330.507 451.877 323.863 443.364C320.515 437.137 316.252 431.288 312.785 425.081C301.067 404.105 292.975 380.708 291.852 356.558C291.76 354.594 291.464 351.781 292.867 350.224C293.91 351.1 294.093 352.056 294.511 353.317C295.906 357.526 296.677 362.008 297.839 366.294Q301.542 380.471 306.797 394.149C314.552 414.199 325.279 433.542 339.223 449.97C378.212 495.902 436.356 517.346 495.065 522.119C518.497 524.024 593.074 523.265 610.146 507.9C611.589 506.602 612.806 504.855 612.748 502.835C612.618 498.24 607.844 493.397 604.766 490.31C584.22 469.707 557.35 458.43 532.511 444.174C517.275 435.43 501.977 426.357 487.31 416.707Q480.629 412.362 474.202 407.65Q467.775 402.937 461.623 397.871Q455.471 392.805 449.613 387.402Q443.755 381.999 438.209 376.275C416.415 353.44 382.256 307.729 383.033 275.145C385.996 279.858 387.794 285.222 389.987 290.319C391.714 294.332 393.73 298.22 395.708 302.112C410.565 328.559 425.994 356.454 449.944 375.838C450.386 321.978 473.496 268.585 517.302 236.076C538.124 220.623 558.326 210.445 572.359 187.331C570.738 187.568 569.122 187.768 567.481 187.785C561.363 187.848 557.573 184.784 553.408 180.762Q552.841 182.164 552.24 183.552C548.475 192.196 540.839 199.338 532.036 202.692C526.787 204.691 519.456 205.884 514.217 203.362C511.103 201.863 508.75 198.84 507.775 195.546C507.136 193.387 507.569 191.373 508.581 189.427L509.412 189.269C511.794 191.657 511.652 195.43 514.281 197.619C517.238 200.082 521.535 200.355 525.181 199.859C538.808 198.007 547.119 186.016 549.096 173.259C549.652 169.673 549.181 161.919 551.217 159.176C551.469 159.374 551.758 159.533 551.974 159.769C555.436 163.544 554.951 171.063 555.007 175.803C557.741 178.612 560.445 181.303 564.201 182.718C567.106 183.812 570.21 183.858 573.052 182.546C578.486 180.036 581.98 173.356 584.092 168.01C587.683 158.923 589.56 147.362 585.298 138.185C583.965 135.314 581.523 132.582 578.526 131.42C576.325 132.492 579.652 142.831 576.015 149.352C573.529 153.811 569.482 157.601 564.48 158.958C558.985 160.448 552.153 159.091 547.278 156.277C542.918 153.76 540.266 150.376 538.957 145.555ZM650.501 254.143C640.077 256.282 626.017 260.525 617.478 266.959C613.164 270.21 609.579 274.355 605.421 277.798C599.995 280.298 592.966 283.176 587.008 280.972C585.176 280.294 583.711 279.026 582.989 277.19C581.889 274.389 582.596 270.976 583.893 268.367C586.454 263.218 591.193 259.962 595.852 256.9C580.14 261.071 562.3 266.05 548.461 274.771C532.575 284.781 520.039 303.663 506.05 316.544C496.539 325.302 485.04 331.868 476.067 341.189C470.333 347.146 465.611 354.06 461.467 361.19C460.097 363.546 458.723 365.908 457.522 368.354C457.766 373.571 458.038 378.779 458.013 384.003C479.417 403.828 504.401 419.035 529.606 433.549C536.26 428.148 545.533 424.722 551.346 419.171C555.644 415.067 556.004 406.948 561.232 403.982C562.345 403.35 563.416 403.126 564.678 403.235C567.575 403.487 570.414 405.432 572.881 406.873C573.023 406.761 573.166 406.651 573.307 406.538C579.899 401.205 584.385 387.296 594.618 388.569C596.478 388.801 598.838 389.29 600.066 390.788C600.165 391.477 600.416 391.89 599.968 392.499C597.858 395.368 589.628 394.69 588.859 397.56C590.181 399.194 592.492 400.202 594.57 400.404C599.972 400.929 608.027 400.722 612.22 396.873C613.397 395.791 614.515 393.988 614.414 392.335C614.013 385.737 600.473 383.69 606.602 374.897C608.357 372.379 611.309 371.257 614.26 370.918C618.549 370.425 622.967 371.294 627.091 372.421C634.299 369.967 639.293 368.716 646.796 371.163C653.087 346.598 639.294 340.236 634.323 318.348C630.469 317.434 625.628 315.869 621.939 318.094C613.496 323.185 606.043 349.512 593.76 347.555C593.163 347.46 592.666 347.25 592.109 347.044C593.928 341.837 600.377 339.434 603.807 335.137C607.732 330.223 610.054 324.122 613.871 319.142C618.407 313.225 622.722 312.784 629.691 311.855L627.111 305.523L629.356 301.18C632.888 297.49 637.498 296.746 641.339 293.747C643.424 292.119 645.491 289.016 645.541 286.275C645.566 284.87 645.319 284.548 644.519 283.493C643.746 283.086 643.039 282.648 642.126 282.71C636.471 283.095 630.241 294.443 627.31 298.709C610.412 312.952 588.593 301.258 583.438 330.415C585.769 335.018 587.713 339.561 589.054 344.551C589.037 348.529 588.175 352.802 586.537 356.426C585.575 358.554 583.684 361.923 581.239 362.578C580.505 362.775 580.301 362.403 579.721 362.024C578.278 357.098 581.945 350.898 583.951 346.429C581.257 337.744 576.697 330.488 579.778 321.058C584.489 306.638 597.315 303.834 610.248 300.577C614.101 299.606 618.644 298.53 621.902 296.147C628.456 291.355 630.592 281.546 638.277 277.989C640.881 276.785 643.954 276.771 646.617 277.837C648.292 278.508 649.657 280.229 650.315 281.873C656.473 297.27 635.433 298.863 633.335 306.044C632.857 307.681 633.414 309.367 634.203 310.804C635.651 313.441 638.052 315.455 640.984 316.224C643.228 316.812 645.611 316.59 647.622 315.393C652.124 312.715 652.972 306.229 654.228 301.559C657.54 299.427 663.345 297.555 664.899 293.753C667.122 288.315 664.185 279.612 661.892 274.485C660.199 270.699 657.524 266.219 653.412 264.764C644.418 261.582 628.466 279.75 620.401 283.606C618.328 284.597 615.874 285.415 613.63 284.489C611.789 283.729 611.214 282.318 610.474 280.607C613.651 279.24 617.859 278.968 620.68 277.147C624.986 274.367 628.304 270.177 632.124 266.798C637.893 261.693 647.834 256.307 655.568 259.201C662.158 261.666 665.748 268.687 668.338 274.795C670.921 280.891 673.496 289.346 671.045 295.805C669.312 300.371 665.283 302.559 661.023 304.318Q659.611 304.899 658.181 305.436C657.469 310.449 656.633 316.008 652.243 319.211C648.747 321.762 644.523 321.928 640.374 322.116L640.691 322.98C649.185 345.756 658.787 347.358 651.634 374.689C653.971 377.928 655.341 380.484 656.149 384.474C655.255 388.148 654.211 391.112 650.864 393.255C648.303 394.894 645.25 395.179 642.326 394.497C638.495 393.603 635.654 391.386 632.857 388.753C629.682 391.533 626.121 393.302 622.714 395.71C614.734 401.351 609.569 407.002 598.768 406.381C593.855 406.098 588.952 404.583 584.424 402.721C580.745 407.081 578.029 410.175 572.37 411.831C569.291 411.038 566.428 410.147 563.5 408.904C558.139 420.376 554.432 424.137 543.484 430.322C540.32 432.11 537.356 433.78 534.761 436.387C555.536 447.467 611.429 475.635 618.784 498.566C619.872 501.955 619.784 505.471 618.148 508.67C614.507 515.79 604.818 519.133 597.625 521.206C564.792 530.67 528.871 529.986 495.021 529.343C493.973 534.995 491.251 544.138 494.819 549.148C496.81 551.944 500.491 553.029 503.733 553.461C506.606 553.844 509.528 554.029 512.417 554.261C518.713 549.134 525.39 545.763 533.801 546.736C542.126 547.698 551.3 552.97 556.397 559.607C557.553 561.112 558.563 562.752 559.584 564.351C564.476 565.032 569.569 565.547 573.994 567.923C578.895 570.554 581.561 575.861 585.974 579.078C592.459 583.805 601.563 585.396 606.688 591.907C611.074 597.48 610.942 605.003 611.636 611.71C625.392 618.289 638.663 626.363 652.709 632.224C660.358 635.416 669.565 635.906 676.648 640.16C680.23 642.311 683.639 645.857 684.95 649.893C686.245 653.88 685.105 657.577 683.151 661.138C678.557 669.51 669.611 674.164 664.026 681.704C651.883 698.095 659.243 713.806 633.524 720.726C629.81 721.726 626.022 722.416 622.554 724.127C622.361 724.223 622.166 724.313 621.974 724.409C621.858 724.467 621.745 724.53 621.631 724.591C622.624 730.079 624.266 736.088 620.648 741.013C617.72 744.998 612.411 747.094 607.999 748.972L602.825 751.05C603.448 755.35 604.234 760.014 602.327 764.118C598.832 771.644 590.882 767.435 585.202 770.215C574.861 775.275 594.547 799.199 591.225 806.835C590.744 807.94 589.557 808.506 588.448 808.797C585.488 809.573 581.562 808.263 579.014 806.802Q577.798 806.103 576.679 805.255C571.407 801.273 567.195 795.454 563.569 790.009C548.65 767.606 543.295 740.965 535.969 715.512C533.256 706.085 530.402 696 525.861 687.286C522.145 680.153 516.961 673.944 511.626 667.98C497.224 651.88 488.429 643.045 482.189 621.629C481.855 617.894 481.761 613.844 482.408 610.146C484.376 598.885 493.429 593.591 501.98 587.502C502.231 581.227 503.171 575.171 504.342 569.017C500.333 569.047 496.216 569.221 492.226 568.817C473.261 566.893 475.331 553.408 469.95 539.864C467.65 534.078 464.047 529.463 460.133 524.683C456.51 524.177 452.916 523.419 449.324 522.726C446.974 529.96 445.653 537.588 444.106 545.029C435.196 590.058 429.793 633.405 433.18 679.367C434.061 691.311 433.449 701.997 440.335 712.33C474.735 763.949 544.736 804.898 604.924 816.651C609.833 817.61 614.733 818.388 619.737 818.602Q628.272 804.384 635.558 789.487Q642.845 774.591 648.829 759.125C655.002 746.296 664.222 725.645 678.701 720.54C682.255 719.288 686.944 718.864 690.409 720.619C694.444 722.664 696.433 727.814 697.621 731.935C698.933 736.484 698.626 746.42 702.764 749.122C709.687 753.644 728.143 734.546 734.676 754.821C735.34 756.882 735.525 758.978 735.701 761.122C735.392 781.518 729.816 796.21 721.204 814.384C732.093 811.988 742.767 807.09 752.877 802.464C792.349 784.405 826.612 759.635 855.402 727.078C858.896 721.932 863.828 717.417 867.638 712.435C882.695 692.743 898.655 669.99 905.645 645.924C889.625 673.394 873.743 700.008 848.924 720.621C843.555 725.08 837.672 729.733 831.084 732.256C828.401 733.284 823.545 734.812 820.818 733.174C816.186 730.391 820.252 720.726 821.855 716.984C825.173 709.244 830.261 701.622 832.873 693.685C836.385 683.014 837.006 671.428 841.39 661.06C845.424 651.521 854.761 643.572 856.281 633.087C857.655 623.607 849.741 615.489 851.01 605.975C851.745 600.464 858.443 593.994 857.187 588.634C856.536 585.855 853.176 583.242 850.74 582.086C840.714 577.326 829.002 585.968 819.723 589.389C810.768 592.689 800.839 594.421 791.901 590.195C780.434 584.773 768.263 573.128 763.998 560.982Q763.524 559.65 763.189 558.276Q762.854 556.901 762.663 555.5Q762.472 554.099 762.426 552.685Q762.379 551.272 762.479 549.861C762.966 542.532 766.041 535.667 767.177 528.453C768.985 516.974 766.709 505.919 771.97 495.028C776.476 485.699 785.889 480.648 792.242 472.826C797.099 466.846 799.94 459.327 805.673 454.059C809.717 450.343 814.35 448.514 819.461 446.757C824.951 445.724 830.629 445.625 836.202 445.479C835.898 442.801 835.169 439.93 835.879 437.275C836.194 436.094 836.776 434.879 837.959 434.363C840.548 433.235 843.467 434.903 845.811 435.947C844.388 429.48 842.653 424.188 839.014 418.62C835.819 419.176 832.395 419.231 829.153 419.485C827.762 427.492 827.538 434.893 822.459 441.671C818.381 444.091 814.132 446.646 809.325 447.185Q808.859 447.242 808.39 447.274Q807.922 447.306 807.452 447.314Q806.982 447.321 806.513 447.304Q806.044 447.287 805.576 447.246Q805.108 447.204 804.643 447.138Q804.178 447.072 803.717 446.982Q803.256 446.891 802.801 446.777Q802.345 446.663 801.897 446.525Q801.448 446.387 801.007 446.225Q800.566 446.064 800.134 445.88Q799.702 445.695 799.28 445.489Q798.858 445.282 798.448 445.054Q798.037 444.825 797.64 444.576Q797.242 444.326 796.858 444.056Q796.474 443.786 796.104 443.496Q795.735 443.206 795.381 442.897C790.597 438.768 786.896 431.633 786.676 425.333Q786.642 424.55 786.69 423.768Q786.739 422.986 786.868 422.214Q786.998 421.441 787.208 420.686Q787.418 419.931 787.706 419.202Q787.993 418.474 788.356 417.779Q788.718 417.084 789.151 416.431Q789.584 415.779 790.083 415.174Q790.583 414.57 791.142 414.022C796.009 409.247 802.183 409.038 808.555 408.957C806.944 406.689 804.955 404.369 804.016 401.736L804.713 400.421C803.522 397.816 799.45 397.447 797.709 395.106C792.482 388.078 794.801 382.479 786.458 374.219C784.895 376.406 782.923 379.003 780.482 380.241C778.964 381.011 778.208 380.791 776.705 380.302C775.537 379.211 774.973 378.203 774.546 376.651C773.012 371.083 774.795 362.541 777.501 357.554C778.959 356.989 780.883 356.447 782.028 355.388C784.701 352.915 777.391 345.068 777.728 341.227C777.877 339.524 779.017 337.121 780.473 336.141C781.658 335.344 782.86 335.052 784.267 335.261C788.599 335.905 792.287 339.359 794.603 342.886C797.125 346.725 800.969 354.229 799.843 358.837C799.505 360.219 798.729 361.177 797.487 361.871C794.384 363.607 789.875 361.435 786.907 360.313L781.646 362.485C780.261 366.892 779.407 371.445 778.46 375.962C780.06 373.859 781.992 371.295 784.572 370.372C791.938 367.736 796.892 378.718 801.361 382.829C802.972 384.311 805.198 385.252 807.153 386.202C806.898 384.458 806.566 382.644 806.548 380.881C806.502 376.232 809.368 373.329 812.326 370.174C812.638 367.52 813.239 364.941 813.819 362.338C816.381 360.817 819.067 359.135 821.835 358.02C825.502 356.543 831.465 357.528 834.09 354.525C835.939 349.04 828.377 341.457 826.822 336.06C826.763 335.857 826.709 335.652 826.653 335.447C826.397 329.986 825.907 325.155 821.842 321.142C821.979 319.707 821.938 318.56 823.005 317.469C824.592 317.257 825.861 317.917 827.303 318.488C829.606 317.752 831.815 316.669 834.141 317.904C835.397 318.57 836.429 319.751 836.847 321.117C837.132 322.048 836.995 322.655 836.754 323.555C835.806 324.695 835.751 324.755 834.32 325.125C832.33 324.717 831.123 323.362 829.691 322.015C830.493 326.892 830.941 332.583 832.661 337.198C833.651 339.857 835.966 341.68 837.583 343.93C840.193 347.562 841.01 353.678 838.272 357.431C836.717 359.561 833.869 361.061 831.274 361.386C829.482 361.61 827.696 361.325 825.938 360.985C823.294 362.881 820.66 364.723 817.876 366.409C817.211 372.625 815.201 375.048 810.899 379.467C812.023 382.402 813.25 384.873 812.295 388.04C811.346 389.107 810.834 389.684 809.35 389.848C805.52 390.272 801.882 387.629 798.802 385.719C802.302 393.335 805.394 391.712 808.794 396.447C810.383 398.66 810.108 401.992 811.704 404.579C813.003 406.685 814.601 409.071 814.071 411.644C812.458 413.565 810.806 413.61 808.403 413.811C803.249 414.24 797.533 413.59 793.856 418.097C792.435 419.839 791.846 422.247 791.187 424.361C793.625 431.184 796.205 435.982 801.084 441.329C805.975 442.019 810.972 442.898 815.237 439.687C823.441 433.511 822.409 406.336 830.092 407.8C833.482 408.445 837.201 412.897 840.156 414.784C841.207 415.63 842.218 416.5 843.172 417.456C849.164 423.459 849.909 430.647 850.015 438.634C853.173 439.12 856.806 439.574 859.331 441.707C862.551 444.428 862.797 448.809 863.134 452.708C869.723 454.349 875.354 456.241 881.399 459.392C882.616 446.843 885.358 448.106 891.461 438.835C891.573 438.664 891.682 438.491 891.792 438.32C890.018 437.713 888.1 437.149 886.442 436.269C880.564 433.153 879.02 425.742 877.147 419.921C877.098 424.167 877.526 429.59 874.518 432.958C873.717 433.258 873.355 433.588 872.488 433.321C867.852 431.893 857.749 412.942 855.06 408.488C856.851 415.348 864.095 429.574 864.105 435.217C864.107 436.34 864.156 436.462 863.361 437.303C863.098 437.238 862.826 437.203 862.573 437.109C858.305 435.509 855.483 427.658 853.688 423.733C848.936 421.049 844.769 417.384 840.584 413.911C839.718 412.933 838.835 411.946 838.125 410.846C836.614 408.505 835.886 405.774 836.605 403.02C837.098 401.133 838.209 399.565 839.942 398.637C841.319 397.899 842.953 397.823 844.417 398.331C847.406 399.368 848.605 401.837 849.93 404.5C847.292 405.295 844.86 402.423 842.751 403.81C842.211 405.87 842.94 407.344 844.012 409.093C846.169 412.612 849.17 415.508 852.103 418.371C851.376 414.033 850.268 409.369 850.516 404.969C851.922 404.664 853.284 404.329 854.735 404.554C860.727 405.484 869.136 422.085 872.002 426.994C872.616 422.341 872.513 417.663 872.507 412.98C872.004 412.301 871.507 411.624 871.037 410.923C869.931 409.276 869 407.561 869.616 405.5C870.468 402.653 874.042 401.52 876.487 400.454C876.607 400.511 876.728 400.568 876.848 400.627C880.139 402.262 884.677 404.317 885.755 408.203C886.022 409.162 885.826 409.128 885.402 409.948C884.793 410.117 884.677 410.19 883.966 410.169C880.438 410.065 876.235 405.558 873.759 403.413C875.314 405.611 876.85 407.82 877.944 410.29C881.536 418.396 882.037 427.083 889.781 432.619C891.5 431.541 893.49 429.117 895.34 428.512C896.493 428.135 897.196 428.201 898.173 428.922C900.951 430.973 901.422 436.326 901.397 439.413C901.365 443.359 899.911 449.966 896.59 452.537C895.529 453.358 895.173 453.336 893.92 453.275C892.177 452.234 891.48 450.802 890.511 449.092L890.02 448.217C885.846 448.025 888.479 461.202 884.352 464.922C879.619 463.717 875.189 461.612 870.623 459.913C866.787 458.486 862.883 457.371 859.154 455.652C858.171 452.232 857.55 448.906 857.067 445.382C851.238 443.658 846.125 441.511 840.816 438.549C841.139 440.608 841.655 442.887 841.555 444.971C841.1 454.379 819.17 447.843 809.583 456.637C804.181 461.592 801.833 468.701 797.29 474.299C787.358 486.534 774.244 492.078 772.713 509.733C772.148 516.237 772.793 522.767 771.964 529.279C771.016 536.732 767.337 543.616 767.143 551.255C766.921 559.978 773.199 568.484 779.025 574.514C797.462 593.594 810.552 588.007 831.984 578.917C836.475 577.013 841.182 574.868 846.177 575.077C851.227 575.289 856.674 579.891 859.871 583.615C866.461 591.291 857.72 597.292 856.574 605.149C855.163 614.814 862.305 623.193 861.173 632.948C859.83 644.532 849.559 653.495 845.389 664.125C842.271 672.074 841.349 680.706 839.408 688.979C838.155 694.314 836.185 699.606 833.943 704.602C831.322 710.445 823.895 720.245 823.577 726.262C823.513 727.476 823.597 727.585 824.378 728.421C826.05 728.904 826.864 728.736 828.421 728.11C834.692 725.591 840.192 720.888 845.351 716.601C872.366 694.151 893.698 662.596 907.431 630.44C920.624 599.546 926.321 570.031 927.952 536.631C928.228 530.982 929.529 522.492 927.426 517.231C926.107 516.948 925.705 518.454 924.202 518.68C922.519 516.994 921.657 515.159 920.798 512.95C917.78 505.196 916.286 496.387 914.039 488.347C912.401 482.485 910.048 476.798 908.625 470.887C908.198 469.112 907.907 467.274 907.942 465.444C907.965 464.294 907.777 464.729 908.534 463.985C916.071 468.026 922.633 497.128 926.337 506.025L926.541 506.504C926.399 451.374 898.014 387.481 862.944 345.68Q856.302 337.784 849.174 330.323Q842.047 322.862 834.464 315.865Q826.88 308.869 818.87 302.364Q810.86 295.86 802.456 289.874C798.985 287.387 792.336 282.012 788.002 281.824C786.91 281.777 786.777 281.956 786.025 282.647C784.987 290.007 794.975 299.233 797.323 306.237C799.483 312.678 799.372 319.889 799.526 326.615C802.432 330.277 806.457 332.652 809.353 336.195C811.616 338.964 812.389 342.405 815.207 344.788C816.493 345.037 816.742 345.103 817.923 344.374C819.257 343.552 820.341 341.959 820.691 340.465C822.841 331.287 810.934 319.047 806.708 311.781C805.64 309.944 804.953 307.549 805.572 305.468L806.502 305.221C812.653 308.363 817.082 316.552 820.243 322.34C822.264 326.884 824.308 331.376 825.692 336.167C825.843 337.169 825.991 338.159 826.007 339.174C826.056 342.293 825.091 345.084 822.79 347.235C820.963 348.943 818.346 350.661 815.728 350.407C814.151 350.254 812.763 349.425 811.614 348.372C809.169 346.134 807.747 342.912 805.576 340.427C802.071 336.412 797.762 333.442 794.528 329.111C794.428 323.045 794.541 316.164 792.865 310.314C791.284 304.8 787.499 300.233 784.703 295.298C782.548 291.496 780.851 287.45 779.282 283.378L780.837 277.916C766.632 266.969 740.678 259.683 723.337 254.066C728.048 258.797 734.485 264.22 736.324 270.842C739.206 281.223 733.613 302.083 724.901 308.718C720.998 311.69 714.475 311.765 711.687 316.175C707.823 322.289 710.664 330.754 706.892 336.943C704.785 340.399 701.691 341.333 697.992 342.137C694.462 341.365 691.758 339.955 688.916 337.756C681.899 332.328 673.317 322.784 676.634 313.278C678.019 309.309 680.7 305.881 682.009 301.885C684.965 292.853 685.188 281.188 683.909 271.838C681.337 253.031 670.706 264.703 665.092 259.761C664.929 259.617 664.799 259.439 664.652 259.278C667.276 257.036 670.267 256.187 673.725 256.462C677.02 256.723 681.612 258.251 683.716 260.959C689.359 268.225 690.178 293.95 687.551 302.546C686.026 307.535 682.283 312.113 681.642 317.361C681.276 320.356 682.527 322.46 684.297 324.776C686.783 328.027 693.848 336.068 698.004 336.392C705.507 336.975 704.156 321.118 705.884 316.472C708.864 308.465 717.177 307.844 722.896 302.819C728.943 297.506 731.21 288.534 731.66 280.769C732.201 271.418 726.829 264.839 720.868 258.279C718.969 256.19 716.918 254.056 714.369 252.777C704.637 247.893 683.621 246.967 672.437 246.445C665.482 251.039 658.541 252.457 650.501 254.143ZM629.712 382.806C625.79 379.318 618.753 374.982 613.171 375.9C611.983 376.095 611.9 376.399 611.248 377.321C611.156 381.979 617.739 386.841 620.471 390.404C624.562 388.761 627.725 386.851 631.092 384.004C636.161 383.049 639.116 386.875 643.434 388.786C644.814 389.396 646.572 389.853 647.999 389.129C649.613 388.309 650.417 386.149 650.729 384.476Q650.798 384.109 650.828 383.737Q650.859 383.365 650.85 382.991Q650.841 382.618 650.793 382.247Q650.746 381.877 650.66 381.514Q650.574 381.15 650.45 380.798Q650.327 380.445 650.167 380.108Q650.007 379.77 649.813 379.451Q649.619 379.132 649.393 378.835C647.32 376.061 643.539 374.423 640.183 374C632.246 373.001 635.161 378.72 630.265 382.399C630.082 382.537 629.896 382.67 629.712 382.806ZM540.366 100.619C540.429 102.784 540.315 105.143 542.025 106.762C542.965 107.652 544.256 108.031 545.494 108.247C545.531 106.168 545.772 103.925 544.089 102.368C543.127 101.477 541.608 100.992 540.366 100.619ZM625.732 251.587C616.356 253.656 593.624 262.413 588.504 270.713C587.892 271.705 587.719 272.549 587.576 273.69C587.801 274.333 587.778 274.938 588.459 275.223C589.562 275.682 590.883 275.56 592.06 275.564C595.549 274.995 598.649 274.378 601.758 272.556C607.125 269.41 610.568 264.146 615.634 260.731C618.976 258.479 626.23 256.699 628.374 253.16C628.7 252.623 628.673 252.57 628.779 252.041C627.772 251.218 627.098 251.502 625.841 251.574C625.805 251.576 625.768 251.583 625.732 251.587ZM528.41 284.524C503.155 299.411 481.089 318.182 461.26 339.677C460.391 343.715 458.777 349.361 460.057 353.397C464.154 347.205 468.357 341.314 473.721 336.124C480.497 329.568 488.604 324.276 495.906 318.328C505.313 310.666 513.809 301.973 521.966 293.016C523.731 291.078 528.109 287.018 528.41 284.524ZM782.937 340.232C783.031 344.759 787.881 352.789 791.077 355.966C791.911 356.795 792.995 357.183 794.087 357.556C793.835 352.381 791.237 345.416 787.429 341.891C785.982 340.551 784.805 340.343 782.937 340.232ZM466.717 525.947C470.464 530.049 473.553 533.837 475.761 538.979C482.679 555.091 477.253 562.724 500.163 563.734C503.178 563.866 505.522 564.2 507.877 561.92C508.016 561.785 508.144 561.638 508.278 561.496C508.214 560.688 508.42 560.232 507.716 559.699C502.034 555.405 491.467 562.789 488.477 549.421C486.989 542.764 488.316 535.194 489.692 528.626C482.07 527.748 474.379 526.168 466.717 525.947ZM526.968 552.13C521.277 553.456 516.771 556.048 513.574 561.083C506.849 571.673 509.773 581.1 506.051 589.481C499.91 603.311 481.527 596.325 488.291 623.427C494.326 647.61 518.67 662.785 530.824 683.663C537.981 695.955 541.331 710.851 544.779 724.547C550.571 747.556 556.96 770.369 570.536 790.22C573.423 794.441 577.793 800.595 582.396 803.053C583.651 803.723 584.389 803.801 585.77 803.604C586.414 802.061 585.559 800.184 584.97 798.724C583.597 795.326 581.579 792.213 580.25 788.833C578.206 783.635 577.38 772.761 579.551 767.586C580.157 766.143 581.059 765.06 582.507 764.393C587.249 762.209 595.212 767.502 598.069 760.623C599.566 757.018 596.552 752.866 597.394 748.991C597.538 748.852 597.681 748.712 597.827 748.575C603.32 743.421 617.601 742.552 618.259 734.558C618.689 729.326 613.941 724.994 618.772 720.345C625.195 714.164 636.934 716.375 643.967 710.179C654.229 701.139 653.435 683.796 665.163 672.457C670.451 667.344 679.488 661.821 680.173 653.839C680.362 651.633 679.579 649.662 678.095 648.044C675.351 645.052 671.088 643.554 667.272 642.469C662.848 641.211 658.185 640.317 653.886 638.687C644.167 635.004 635.089 629.278 625.776 624.673C620.937 622.279 615.565 620.35 611.016 617.451C603.687 612.779 607.419 603.398 603.387 596.864C598.857 589.525 588.578 587.301 581.933 582.384C577.841 579.357 575.028 574.582 570.508 572.203C566.801 570.251 561.742 569.669 557.591 569.375C553.551 565.218 550.27 560.171 545.4 556.945L544.85 557.21C539.842 559.676 537.163 565.978 532.349 567.729C531.221 566.829 531.129 566.776 530.733 565.399C531.589 560.14 536.298 556.218 540.017 552.793C535.704 552.401 531.295 551.79 526.968 552.13ZM439.125 719.184C451.439 773.757 479.283 829.562 527.991 860.329C537.819 866.537 547.01 869.332 558.555 866.731C572.097 863.681 584.384 855.395 594.654 846.34Q606.219 835.687 616.011 823.383Q613.419 822.973 610.834 822.515Q608.25 822.057 605.674 821.551Q603.099 821.045 600.533 820.491Q597.967 819.937 595.412 819.336Q592.858 818.735 590.314 818.087Q587.771 817.439 585.24 816.743Q582.709 816.048 580.191 815.306Q577.674 814.563 575.17 813.775Q572.667 812.986 570.179 812.151Q567.69 811.316 565.218 810.435Q562.745 809.554 560.29 808.628Q557.834 807.701 555.396 806.729Q552.958 805.757 550.538 804.74Q548.118 803.723 545.718 802.661Q543.318 801.599 540.937 800.493Q538.557 799.387 536.197 798.237Q533.838 797.088 531.5 795.894Q529.163 794.701 526.848 793.464Q524.532 792.227 522.241 790.948Q519.949 789.669 517.681 788.347Q515.413 787.026 513.17 785.662Q510.928 784.299 508.71 782.894Q506.493 781.489 504.302 780.044Q502.112 778.598 499.948 777.112Q497.785 775.626 495.649 774.101Q493.513 772.575 491.406 771.01Q489.299 769.445 487.221 767.841Q485.144 766.237 483.096 764.595Q481.049 762.953 479.032 761.273Q477.015 759.593 475.03 757.876Q473.045 756.159 471.091 754.406Q469.138 752.652 467.218 750.863C461.547 745.555 456.224 739.582 451.239 733.624C447.853 729.576 443.195 721.991 439.125 719.184Z"/>
	<path fill="#A29690" d="M538.957 145.555C531.483 147.915 524.319 160.696 513.495 163.723C503.68 166.468 492.628 163.964 482.666 163.251C458.058 161.491 436.356 170.727 424.764 193.287C415.174 211.949 415.415 232.244 412.437 252.445C409.837 270.088 404.302 286.476 395.708 302.112C393.73 298.22 391.714 294.332 389.987 290.319C387.794 285.222 385.996 279.858 383.033 275.145C382.256 307.729 416.415 353.44 438.209 376.275Q443.755 381.999 449.613 387.402Q455.471 392.805 461.623 397.871Q467.775 402.937 474.202 407.65Q480.629 412.362 487.31 416.707C501.977 426.357 517.275 435.43 532.511 444.174C557.35 458.43 584.22 469.707 604.766 490.31C607.844 493.397 612.618 498.24 612.748 502.835C612.806 504.855 611.589 506.602 610.146 507.9C593.074 523.265 518.497 524.024 495.065 522.119C436.356 517.346 378.212 495.902 339.223 449.97C325.279 433.542 314.552 414.199 306.797 394.149Q301.542 380.471 297.839 366.294C296.677 362.008 295.906 357.526 294.511 353.317C294.093 352.056 293.91 351.1 292.867 350.224C291.464 351.781 291.76 354.594 291.852 356.558C292.975 380.708 301.067 404.105 312.785 425.081C316.252 431.288 320.515 437.137 323.863 443.364C317.698 457.322 315.242 472.572 312.58 487.512Q311.978 490.791 311.432 494.079Q310.887 497.367 310.397 500.665Q309.908 503.962 309.475 507.267Q309.042 510.572 308.665 513.884Q308.288 517.196 307.969 520.514Q307.649 523.832 307.385 527.155Q307.122 530.478 306.916 533.805Q306.71 537.132 306.56 540.462Q306.41 543.792 306.318 547.124Q306.225 550.456 306.19 553.789Q306.154 557.123 306.175 560.456Q306.196 563.789 306.275 567.122Q306.353 570.454 306.488 573.785Q306.623 577.115 306.815 580.443Q307.007 583.771 307.256 587.095Q307.505 590.419 307.81 593.739Q308.116 597.058 308.478 600.371Q308.84 603.685 309.259 606.992Q309.678 610.299 310.153 613.598Q310.628 616.898 311.16 620.188Q311.691 623.479 312.279 626.76Q312.866 630.042 313.51 633.312Q314.154 636.583 314.853 639.842Q315.552 643.101 316.307 646.348Q317.062 649.595 317.873 652.828Q318.683 656.061 319.548 659.28Q320.414 662.5 321.334 665.703Q322.254 668.907 323.229 672.095Q324.204 675.282 325.233 678.453Q326.263 681.623 327.346 684.776Q328.429 687.928 329.566 691.062Q330.703 694.195 331.893 697.309C355.719 758.894 404.17 822.355 465.904 849.455C479.47 855.41 504.555 865.451 518.988 864.769C520.597 865.238 522.456 866.594 523.95 867.422C529.138 870.296 534.037 872.941 539.879 874.245C561.333 879.034 585.576 873.247 603.884 861.586C639.205 839.088 661.09 796.816 670.118 756.924C665.908 765.147 663.041 773.94 659.414 782.42Q656.902 788.326 654.057 794.079Q651.213 799.832 648.043 805.413Q644.875 810.994 641.392 816.385Q637.909 821.776 634.124 826.959C616.472 850.851 595.018 866.795 565.315 871.272C602.776 855.91 625.899 826.654 642.745 791.028C647.865 780.199 652.073 768.959 657.096 758.087C661.318 748.949 670.597 730.428 680.967 726.996C683.013 726.319 685.2 726.32 687.1 727.414C693.567 731.139 692.378 742.056 694.184 748.383C695.107 751.616 696.628 755.046 699.809 756.605C705.437 759.366 711.41 754.979 716.686 753.312C719.179 752.524 722.884 751.89 725.294 753.249C726.804 754.099 727.516 755.487 727.97 757.083C732.659 773.557 720.276 801.611 712.089 815.698C690.887 852.176 659.296 879.871 621.377 898.024C612.451 902.298 603.417 906.465 593.823 908.999C578.809 904.257 567.553 897.795 551.042 896.237C548.816 896.026 546.851 895.795 545.06 897.279C545.168 899.022 545.712 899.702 547.372 900.487C549.936 901.699 552.932 902.266 555.616 903.19C560.051 904.718 564.443 906.43 568.823 908.109C584.444 914.097 632.496 934.201 640.587 947.734C641.348 949.007 641.816 950.6 641.179 952.033C640.094 954.475 636.5 955.93 634.171 956.756C627.978 958.952 621.383 959.533 614.866 959.937C577.441 962.259 533.161 949.369 499.534 933.652C487.776 935.174 474.82 934.613 462.974 933.799C367.381 927.232 278.652 874.896 216.551 803.641Q213.711 800.352 210.953 796.994Q208.195 793.636 205.52 790.212Q202.844 786.787 200.254 783.298Q197.663 779.81 195.159 776.259Q192.654 772.707 190.237 769.096Q187.82 765.485 185.493 761.815Q183.165 758.146 180.928 754.421Q178.69 750.695 176.545 746.917Q174.4 743.138 172.347 739.307Q170.295 735.477 168.337 731.598Q166.379 727.718 164.517 723.792Q162.654 719.866 160.888 715.896Q159.123 711.925 157.455 707.912Q155.786 703.9 154.217 699.848Q152.648 695.796 151.178 691.706Q149.708 687.617 148.339 683.493Q146.97 679.369 145.702 675.212Q144.434 671.056 143.268 666.87Q142.102 662.684 141.039 658.47Q139.976 654.257 139.017 650.019Q138.057 645.78 137.201 641.52Q136.346 637.26 135.595 632.98Q134.844 628.7 134.198 624.402Q133.551 620.105 133.011 615.794Q132.47 611.482 132.035 607.158Q131.6 602.835 131.271 598.502Q130.941 594.169 130.718 589.829Q130.495 585.489 130.379 581.146Q130.262 576.802 130.252 572.456Q130.241 568.111 130.337 563.766Q130.433 559.422 130.635 555.081Q130.838 550.74 131.146 546.406C138.319 442.957 181.922 348.306 242.714 265.539Q258.202 244.769 274.704 224.795C282.534 215.204 290.733 205.727 297.65 195.443C320.81 161.01 335.597 120.225 367.711 92.5078Q368.936 91.4689 370.186 90.4603Q371.437 89.4517 372.711 88.4742Q373.986 87.4966 375.284 86.5506Q376.583 85.6045 377.904 84.6906Q379.225 83.7768 380.568 82.8956Q381.911 82.0144 383.275 81.1664Q384.639 80.3184 386.024 79.5042Q387.409 78.6899 388.813 77.9099Q390.217 77.1298 391.64 76.3845Q393.063 75.6391 394.504 74.9289Q395.945 74.2187 397.403 73.544Q398.86 72.8694 400.334 72.2307Q401.808 71.592 403.297 70.9896Q404.787 70.3873 406.29 69.8217Q407.794 69.2561 409.31 68.7275Q410.827 68.1989 412.357 67.7077Q413.886 67.2166 415.427 66.763Q416.968 66.3095 418.52 65.894Q420.072 65.4784 421.633 65.101Q423.194 64.7236 424.765 64.3846Q426.335 64.0457 427.913 63.7453Q429.491 63.445 431.076 63.1835Q432.661 62.9219 434.252 62.6994Q435.842 62.4768 437.438 62.2933Q439.034 62.1098 440.634 61.9656Q442.234 61.8213 443.837 61.7163Q445.44 61.6114 447.045 61.5458Q448.65 61.4801 450.256 61.4539Q451.862 61.4277 453.468 61.4409Q455.075 61.4541 456.68 61.5067Q458.286 61.5593 459.889 61.6512Q461.493 61.7432 463.094 61.8745C490.802 63.9898 517.761 73.7938 536.147 95.2177C535.485 96.3074 534.891 97.5104 534.62 98.7661C533.783 102.637 536.247 107.784 538.177 111.073C540.758 115.471 544.646 120.696 549.895 121.838C552.52 122.409 554.549 121.018 556.674 119.677C559.407 121.951 562.273 123.99 565.177 126.037C557.776 128.18 547.33 130.348 542.935 137.301C541.433 139.675 540.784 142.487 539.358 144.892L538.957 145.555ZM396.655 117.564L397.304 117.544C398.761 117.488 399.896 117.545 401.16 116.716L401.698 115.585C400.875 113.612 399.301 112.747 397.365 111.958C390.294 109.074 378.687 109.831 371.748 112.967C367.693 114.8 364.54 117.899 363.108 122.162C361.884 125.806 362.56 129.554 364.32 132.9C367.574 139.083 374.356 144.656 381.077 146.506C382.788 146.977 384.075 146.998 385.795 146.622C386.776 145.768 386.741 145.809 386.905 144.517L386.451 143.479C388.547 139.171 388.504 133.807 390.927 129.457C392.27 127.045 399.104 119.758 399.296 118.14L396.655 117.564ZM474.539 113.966C470.599 116.614 468.312 119.286 467.282 124.023C465.771 130.975 468.221 139.61 472.107 145.461C474.951 149.743 479.286 153.387 484.497 154.191C485.352 154.323 486.222 154.362 487.085 154.391C491.326 151.603 493.713 148.53 494.666 143.444C495.988 136.392 493.704 128.098 489.571 122.284C486.867 118.482 482.516 114.807 477.744 114.135C476.689 113.986 475.603 113.978 474.539 113.966ZM691.354 765.88C685.691 776.127 681.959 787.241 676.322 797.505C660.657 826.026 637.645 852.13 610.191 869.803C602.153 874.977 593.764 879.161 585.172 883.307C582.025 884.826 567.731 888.823 566.557 891.22C566.364 891.613 566.45 892.088 566.396 892.522C566.599 892.918 566.807 893.516 567.137 893.81C605.614 886.744 643.621 854.659 665.53 822.981C675.076 809.177 682.171 794.327 688.434 778.796C689.621 775.851 692.349 770.35 691.981 767.21C691.908 766.593 691.772 766.3 691.354 765.88ZM716.596 777.99C693.809 817.477 669.907 849.458 631.556 875.094C625.28 879.29 618.491 882.865 611.774 886.299C606.735 888.876 586.269 897.416 583.482 900.515C582.596 901.5 583.064 903.207 583.299 904.375C631.51 890.803 679.789 848.601 704.125 805.374C706.764 800.687 717.58 782.669 716.596 777.99Z"/>
	<path fill="#FEFEFE" d="M545.494 108.247C544.256 108.031 542.965 107.652 542.025 106.762C540.315 105.143 540.429 102.784 540.366 100.619C541.608 100.992 543.127 101.477 544.089 102.368C545.772 103.925 545.531 106.168 545.494 108.247Z"/>
	<path fill="#4D2524" d="M396.655 117.564C389.81 117.183 380.008 116.174 374.616 121.263C373.272 122.531 372.435 124.21 372.375 126.069C372.241 130.231 375.326 134.003 378.128 136.762C380.632 139.226 383.581 141.457 386.451 143.479L386.905 144.517C386.741 145.809 386.776 145.768 385.795 146.622C384.075 146.998 382.788 146.977 381.077 146.506C374.356 144.656 367.574 139.083 364.32 132.9C362.56 129.554 361.884 125.806 363.108 122.162C364.54 117.899 367.693 114.8 371.748 112.967C378.687 109.831 390.294 109.074 397.365 111.958C399.301 112.747 400.875 113.612 401.698 115.585L401.16 116.716C399.896 117.545 398.761 117.488 397.304 117.544L396.655 117.564Z"/>
	<path fill="#4D2524" d="M487.085 154.391C486.222 154.362 485.352 154.323 484.497 154.191C479.286 153.387 474.951 149.743 472.107 145.461C468.221 139.61 465.771 130.975 467.282 124.023C468.312 119.286 470.599 116.614 474.539 113.966C475.603 113.978 476.689 113.986 477.744 114.135C482.516 114.807 486.867 118.482 489.571 122.284C493.704 128.098 495.988 136.392 494.666 143.444C493.713 148.53 491.326 151.603 487.085 154.391ZM480.411 119.217C479.51 121.023 478.616 122.618 479.345 124.68C479.892 126.23 481.209 127.094 482.673 127.652C483.605 128.007 484.556 128.093 485.539 128.203C486.465 126.501 487.464 124.818 486.906 122.799C486.502 121.339 485.205 120.316 483.834 119.809C482.761 119.412 481.543 119.331 480.411 119.217Z"/>
	<path fill="#FEFEFE" d="M386.451 143.479C383.581 141.457 380.632 139.226 378.128 136.762C375.326 134.003 372.241 130.231 372.375 126.069C372.435 124.21 373.272 122.531 374.616 121.263C380.008 116.174 389.81 117.183 396.655 117.564L399.296 118.14C399.104 119.758 392.27 127.045 390.927 129.457C388.504 133.807 388.547 139.171 386.451 143.479Z"/>
	<path fill="#FEFEFE" d="M485.539 128.203C484.556 128.093 483.605 128.007 482.673 127.652C481.209 127.094 479.892 126.23 479.345 124.68C478.616 122.618 479.51 121.023 480.411 119.217C481.543 119.331 482.761 119.412 483.834 119.809C485.205 120.316 486.502 121.339 486.906 122.799C487.464 124.818 486.465 126.501 485.539 128.203Z"/>
	<path fill="#746E6F" d="M598.113 150.108C597.233 150.346 595.911 150.604 595.009 150.536C594.096 150.467 594.276 150.519 593.773 150.072L593.947 149.029C599.709 142.909 613.822 140.159 621.806 139.2C623.431 139.156 624.302 139.26 625.808 139.868L626.049 140.655C623.948 142.698 603.041 148.398 598.113 150.108Z"/>
	<path fill="#746E6F" d="M589.725 163.586L590.703 160.636C601.029 158.211 622.668 155.711 632.042 161.37C633.161 162.045 633.911 162.723 634.628 163.832L634.656 164.933C633.669 165.726 633.062 165.881 631.774 165.674C628.05 165.078 624.543 163.551 620.714 163.013C610.199 161.534 600.176 162.976 589.725 163.586Z"/>
	<path fill="#746E6F" d="M627.566 192.447C626.939 192.321 626.376 192.186 625.773 191.976C619.299 189.721 613.971 183.978 607.831 180.817C602.102 177.866 595.249 176.811 589.79 173.442C588.582 172.696 587.965 171.2 587.357 169.972Q589.147 170.127 590.926 170.384Q592.704 170.642 594.465 171.002Q596.226 171.362 597.963 171.823Q599.7 172.283 601.407 172.844Q603.115 173.404 604.787 174.062Q606.46 174.72 608.091 175.473Q609.723 176.226 611.308 177.072Q612.894 177.918 614.428 178.854C619.526 181.899 626.012 186.417 627.566 192.447Z"/>
	<path fill="#D0FBE4" d="M650.501 254.143C658.541 252.457 665.482 251.039 672.437 246.445C683.621 246.967 704.637 247.893 714.369 252.777C716.918 254.056 718.969 256.19 720.868 258.279C726.829 264.839 732.201 271.418 731.66 280.769C731.21 288.534 728.943 297.506 722.896 302.819C717.177 307.844 708.864 308.465 705.884 316.472C704.156 321.118 705.507 336.975 698.004 336.392C693.848 336.068 686.783 328.027 684.297 324.776C682.527 322.46 681.276 320.356 681.642 317.361C682.283 312.113 686.026 307.535 687.551 302.546C690.178 293.95 689.359 268.225 683.716 260.959C681.612 258.251 677.02 256.723 673.725 256.462C670.267 256.187 667.276 257.036 664.652 259.278C661.377 256.416 654.76 257.474 650.501 254.143Z"/>
	<path fill="#D0FBE4" d="M592.06 275.564C590.883 275.56 589.562 275.682 588.459 275.223C587.778 274.938 587.801 274.333 587.576 273.69C587.719 272.549 587.892 271.705 588.504 270.713C593.624 262.413 616.356 253.656 625.732 251.587C625.768 251.583 625.805 251.576 625.841 251.574C627.098 251.502 627.772 251.218 628.779 252.041C628.673 252.57 628.7 252.623 628.374 253.16C626.23 256.699 618.976 258.479 615.634 260.731C610.568 264.146 607.125 269.41 601.758 272.556C598.649 274.378 595.549 274.995 592.06 275.564Z"/>
	<path fill="#7AB2BA" d="M605.421 277.798C609.579 274.355 613.164 270.21 617.478 266.959C626.017 260.525 640.077 256.282 650.501 254.143C654.76 257.474 661.377 256.416 664.652 259.278C664.799 259.439 664.929 259.617 665.092 259.761C670.706 264.703 681.337 253.031 683.909 271.838C685.188 281.188 684.965 292.853 682.009 301.885C680.7 305.881 678.019 309.309 676.634 313.278C673.317 322.784 681.899 332.328 688.916 337.756C691.758 339.955 694.462 341.365 697.992 342.137C701.691 341.333 704.785 340.399 706.892 336.943C710.664 330.754 707.823 322.289 711.687 316.175C714.475 311.765 720.998 311.69 724.901 308.718C733.613 302.083 739.206 281.223 736.324 270.842C734.485 264.22 728.048 258.797 723.337 254.066C740.678 259.683 766.632 266.969 780.837 277.916L779.282 283.378C780.851 287.45 782.548 291.496 784.703 295.298C787.499 300.233 791.284 304.8 792.865 310.314C794.541 316.164 794.428 323.045 794.528 329.111C797.762 333.442 802.071 336.412 805.576 340.427C807.747 342.912 809.169 346.134 811.614 348.372C812.763 349.425 814.151 350.254 815.728 350.407C818.346 350.661 820.963 348.943 822.79 347.235C825.091 345.084 826.056 342.293 826.007 339.174C825.991 338.159 825.843 337.169 825.692 336.167L826.653 335.447C826.709 335.652 826.763 335.857 826.822 336.06C828.377 341.457 835.939 349.04 834.09 354.525C831.465 357.528 825.502 356.543 821.835 358.02C819.067 359.135 816.381 360.817 813.819 362.338C813.239 364.941 812.638 367.52 812.326 370.174C809.368 373.329 806.502 376.232 806.548 380.881C806.566 382.644 806.898 384.458 807.153 386.202C805.198 385.252 802.972 384.311 801.361 382.829C796.892 378.718 791.938 367.736 784.572 370.372C781.992 371.295 780.06 373.859 778.46 375.962C779.407 371.445 780.261 366.892 781.646 362.485L786.907 360.313C789.875 361.435 794.384 363.607 797.487 361.871C798.729 361.177 799.505 360.219 799.843 358.837C800.969 354.229 797.125 346.725 794.603 342.886C792.287 339.359 788.599 335.905 784.267 335.261C782.86 335.052 781.658 335.344 780.473 336.141C779.017 337.121 777.877 339.524 777.728 341.227C777.391 345.068 784.701 352.915 782.028 355.388C780.883 356.447 778.959 356.989 777.501 357.554C774.795 362.541 773.012 371.083 774.546 376.651C774.973 378.203 775.537 379.211 776.705 380.302C778.208 380.791 778.964 381.011 780.482 380.241C782.923 379.003 784.895 376.406 786.458 374.219C794.801 382.479 792.482 388.078 797.709 395.106C799.45 397.447 803.522 397.816 804.713 400.421L804.016 401.736C804.955 404.369 806.944 406.689 808.555 408.957C802.183 409.038 796.009 409.247 791.142 414.022Q790.583 414.57 790.083 415.174Q789.584 415.779 789.151 416.431Q788.718 417.084 788.356 417.779Q787.993 418.474 787.706 419.202Q787.418 419.931 787.208 420.686Q786.998 421.441 786.868 422.214Q786.739 422.986 786.69 423.768Q786.642 424.55 786.676 425.333C786.896 431.633 790.597 438.768 795.381 442.897Q795.735 443.206 796.104 443.496Q796.474 443.786 796.858 444.056Q797.242 444.326 797.64 444.576Q798.038 444.825 798.448 445.054Q798.858 445.282 799.28 445.489Q799.702 445.695 800.134 445.88Q800.566 446.064 801.007 446.225Q801.448 446.387 801.897 446.525Q802.346 446.663 802.801 446.777Q803.256 446.891 803.717 446.982Q804.178 447.072 804.643 447.138Q805.108 447.204 805.576 447.246Q806.044 447.287 806.513 447.304Q806.982 447.321 807.452 447.314Q807.922 447.306 808.39 447.274Q808.859 447.242 809.325 447.185C814.132 446.646 818.381 444.091 822.459 441.671C821.54 443.431 820.542 445.092 819.461 446.757C814.35 448.514 809.717 450.343 805.673 454.059C799.94 459.327 797.099 466.846 792.242 472.826C785.889 480.648 776.476 485.699 771.97 495.028C766.709 505.919 768.985 516.974 767.177 528.453C766.041 535.667 762.966 542.532 762.479 549.861Q762.379 551.272 762.426 552.685Q762.472 554.099 762.663 555.5Q762.854 556.901 763.189 558.276Q763.524 559.65 763.998 560.982C768.263 573.128 780.434 584.773 791.901 590.195C800.839 594.421 810.768 592.689 819.723 589.389C829.002 585.968 840.714 577.326 850.74 582.086C853.176 583.242 856.536 585.855 857.187 588.634C858.443 593.994 851.745 600.464 851.01 605.975C849.741 615.489 857.655 623.607 856.281 633.087C854.761 643.572 845.424 651.521 841.39 661.06C837.006 671.428 836.385 683.014 832.873 693.685C830.261 701.622 825.173 709.244 821.855 716.984C820.252 720.726 816.186 730.391 820.818 733.174C823.545 734.812 828.401 733.284 831.084 732.256C837.672 729.733 843.555 725.08 848.924 720.621C873.743 700.008 889.625 673.394 905.645 645.924C898.655 669.99 882.695 692.743 867.638 712.435C863.828 717.417 858.896 721.932 855.402 727.078C845.243 728.999 838.111 735.878 828.877 740.449C805.035 752.251 780.766 760.323 754.625 765.227C748.608 766.356 742.308 767.826 736.168 767.892C736.166 765.816 736.55 763 735.701 761.122C735.525 758.978 735.34 756.882 734.676 754.821C728.143 734.546 709.687 753.644 702.764 749.122C698.626 746.42 698.933 736.484 697.621 731.935C696.433 727.814 694.444 722.664 690.409 720.619C686.944 718.864 682.255 719.288 678.701 720.54C664.222 725.645 655.002 746.296 648.829 759.125C635.919 757.64 619.323 755.422 607.999 748.972C612.411 747.094 617.72 744.998 620.648 741.013C624.266 736.088 622.624 730.079 621.631 724.591C621.745 724.53 621.858 724.467 621.974 724.409C622.166 724.313 622.361 724.223 622.554 724.127C626.022 722.416 629.81 721.726 633.524 720.726C659.243 713.806 651.883 698.095 664.026 681.704C669.611 674.164 678.557 669.51 683.151 661.138C685.105 657.577 686.245 653.88 684.95 649.893C683.639 645.857 680.23 642.311 676.648 640.16C669.565 635.906 660.358 635.416 652.709 632.224C638.663 626.363 625.392 618.289 611.636 611.71C610.942 605.003 611.074 597.48 606.688 591.907C601.563 585.396 592.459 583.805 585.974 579.078C581.561 575.861 578.895 570.554 573.994 567.923C569.569 565.547 564.476 565.032 559.584 564.351C558.563 562.752 557.553 561.112 556.397 559.607C551.3 552.97 542.126 547.698 533.801 546.736C525.39 545.763 518.713 549.134 512.417 554.261C509.528 554.029 506.606 553.844 503.733 553.461C500.491 553.029 496.81 551.944 494.819 549.148C491.251 544.138 493.973 534.995 495.021 529.343C528.871 529.986 564.792 530.67 597.625 521.206C604.818 519.133 614.507 515.79 618.148 508.67C619.784 505.471 619.872 501.955 618.784 498.566C611.429 475.635 555.536 447.467 534.761 436.387C537.356 433.78 540.32 432.11 543.484 430.322C554.432 424.137 558.139 420.376 563.5 408.904C566.428 410.147 569.291 411.038 572.37 411.831C578.029 410.175 580.745 407.081 584.424 402.721C588.952 404.583 593.855 406.098 598.768 406.381C609.569 407.002 614.734 401.351 622.714 395.71C626.121 393.302 629.682 391.533 632.857 388.753C635.654 391.386 638.495 393.603 642.326 394.497C645.25 395.179 648.303 394.894 650.864 393.255C654.211 391.112 655.255 388.148 656.149 384.474C655.341 380.484 653.971 377.928 651.634 374.689C658.787 347.358 649.185 345.756 640.691 322.98L640.374 322.116C644.523 321.928 648.747 321.762 652.243 319.211C656.633 316.008 657.469 310.449 658.181 305.436Q659.611 304.899 661.023 304.318C665.283 302.559 669.312 300.371 671.045 295.805C673.496 289.346 670.921 280.891 668.338 274.795C665.748 268.687 662.158 261.666 655.568 259.201C647.834 256.307 637.893 261.693 632.124 266.798C628.304 270.177 624.986 274.367 620.68 277.147C617.859 278.968 613.651 279.24 610.474 280.607L610.356 279.775C609.224 278.43 607.08 278.202 605.421 277.798ZM745.232 297.535C741.757 299.228 739.089 300.779 737.763 304.641C736.488 308.353 737.422 312.482 739.188 315.872C741.535 320.374 745.617 324.17 750.58 325.537C752.184 325.978 753.953 326.061 755.61 326.041C759.329 323.668 762.115 320.992 762.979 316.493C764.008 311.134 761.953 305.433 759.356 300.799C754.6 298.333 750.637 297.405 745.232 297.535Z"/>
	<path fill="#D0FBE4" d="M595.852 256.9C591.193 259.962 586.454 263.218 583.893 268.367C582.596 270.976 581.889 274.389 582.989 277.19C583.711 279.026 585.176 280.294 587.008 280.972C592.966 283.176 599.995 280.298 605.421 277.798C607.08 278.202 609.224 278.43 610.356 279.775L610.474 280.607C611.214 282.318 611.789 283.729 613.63 284.489C615.874 285.415 618.328 284.597 620.401 283.606C628.466 279.75 644.418 261.582 653.412 264.764C657.524 266.219 660.199 270.699 661.892 274.485C664.185 279.612 667.122 288.315 664.899 293.753C663.345 297.555 657.54 299.427 654.228 301.559C652.972 306.229 652.124 312.715 647.622 315.393C645.611 316.59 643.228 316.812 640.984 316.224C638.052 315.455 635.651 313.441 634.203 310.804C633.414 309.367 632.857 307.681 633.335 306.044C635.433 298.863 656.473 297.27 650.315 281.873C649.657 280.229 648.292 278.508 646.617 277.837C643.954 276.771 640.881 276.785 638.277 277.989C630.592 281.546 628.456 291.355 621.902 296.147C618.644 298.53 614.101 299.606 610.248 300.577C597.315 303.834 584.489 306.638 579.778 321.058C576.697 330.488 581.257 337.744 583.951 346.429C581.945 350.898 578.278 357.098 579.721 362.024C580.301 362.403 580.505 362.775 581.239 362.578C583.684 361.923 585.575 358.554 586.537 356.426C588.175 352.802 589.037 348.529 589.054 344.551C590.232 345.322 591.301 345.865 592.109 347.044C592.666 347.25 593.163 347.46 593.76 347.555C606.043 349.512 613.496 323.185 621.939 318.094C625.628 315.869 630.469 317.434 634.323 318.348C639.294 340.236 653.087 346.598 646.796 371.163C639.293 368.716 634.299 369.967 627.091 372.421C622.967 371.294 618.549 370.425 614.26 370.918C611.309 371.257 608.357 372.379 606.602 374.897C600.473 383.69 614.013 385.737 614.414 392.335C614.515 393.988 613.397 395.791 612.22 396.873C608.027 400.722 599.972 400.929 594.57 400.404C592.492 400.202 590.181 399.194 588.859 397.56C589.628 394.69 597.858 395.368 599.968 392.499C600.416 391.89 600.165 391.477 600.066 390.788C598.838 389.29 596.478 388.801 594.618 388.569C584.385 387.296 579.899 401.205 573.307 406.538C573.166 406.651 573.023 406.761 572.881 406.873C570.414 405.432 567.575 403.487 564.678 403.235C563.416 403.126 562.345 403.35 561.232 403.982C556.004 406.948 555.644 415.067 551.346 419.171C545.533 424.722 536.26 428.148 529.606 433.549C504.401 419.035 479.417 403.828 458.013 384.003C458.038 378.779 457.766 373.571 457.522 368.354C458.723 365.908 460.097 363.546 461.467 361.19C465.611 354.06 470.333 347.146 476.067 341.189C485.04 331.868 496.539 325.302 506.05 316.544C520.039 303.663 532.575 284.781 548.461 274.771C562.3 266.05 580.14 261.071 595.852 256.9Z"/>
	<path fill="#D0FBE4" d="M821.842 321.142L820.243 322.34C817.082 316.552 812.653 308.363 806.502 305.221L805.572 305.468C804.953 307.549 805.64 309.944 806.708 311.781C810.934 319.047 822.841 331.287 820.691 340.465C820.341 341.959 819.257 343.552 817.923 344.374C816.742 345.103 816.493 345.037 815.207 344.788C812.389 342.405 811.616 338.964 809.353 336.195C806.457 332.652 802.432 330.277 799.526 326.615C799.372 319.889 799.483 312.678 797.323 306.237C794.975 299.233 784.987 290.007 786.025 282.647C786.777 281.956 786.91 281.777 788.002 281.824C792.336 282.012 798.985 287.387 802.456 289.874Q810.86 295.86 818.87 302.364Q826.88 308.869 834.464 315.865Q842.047 322.862 849.174 330.323Q856.302 337.784 862.944 345.68C898.014 387.481 926.399 451.374 926.541 506.504L926.337 506.025C922.633 497.128 916.071 468.026 908.534 463.985C907.777 464.729 907.965 464.294 907.942 465.444C907.907 467.274 908.198 469.112 908.625 470.887C910.048 476.798 912.401 482.485 914.039 488.347C916.286 496.387 917.78 505.196 920.798 512.95C921.657 515.159 922.519 516.994 924.202 518.68C925.705 518.454 926.107 516.948 927.426 517.231C929.529 522.492 928.228 530.982 927.952 536.631C926.321 570.031 920.624 599.546 907.431 630.44C893.698 662.596 872.366 694.151 845.351 716.601C840.192 720.888 834.692 725.591 828.421 728.11C826.864 728.736 826.05 728.904 824.378 728.421C823.597 727.585 823.513 727.476 823.577 726.262C823.895 720.245 831.322 710.445 833.943 704.602C836.185 699.606 838.155 694.314 839.408 688.979C841.349 680.706 842.271 672.074 845.389 664.125C849.559 653.495 859.83 644.532 861.173 632.948C862.305 623.193 855.163 614.814 856.574 605.149C857.72 597.292 866.461 591.291 859.871 583.615C856.674 579.891 851.227 575.289 846.177 575.077C841.182 574.868 836.475 577.013 831.984 578.917C810.552 588.007 797.462 593.594 779.025 574.514C773.199 568.484 766.921 559.978 767.143 551.255C767.337 543.616 771.016 536.732 771.964 529.279C772.793 522.767 772.148 516.237 772.713 509.733C774.244 492.078 787.358 486.534 797.29 474.299C801.833 468.701 804.181 461.592 809.583 456.637C819.17 447.843 841.1 454.379 841.555 444.971C841.655 442.887 841.139 440.608 840.816 438.549C846.125 441.511 851.238 443.658 857.067 445.382C857.55 448.906 858.171 452.232 859.154 455.652C862.883 457.371 866.787 458.486 870.623 459.913C875.189 461.612 879.619 463.717 884.352 464.922C888.479 461.202 885.846 448.025 890.02 448.217L890.511 449.092C891.48 450.802 892.177 452.234 893.92 453.275C895.173 453.336 895.529 453.358 896.59 452.537C899.911 449.966 901.365 443.359 901.397 439.413C901.422 436.326 900.951 430.973 898.173 428.922C897.196 428.201 896.493 428.135 895.34 428.512C893.49 429.117 891.5 431.541 889.781 432.619C882.037 427.083 881.536 418.396 877.944 410.29C876.85 407.82 875.314 405.611 873.759 403.413C876.235 405.558 880.438 410.065 883.966 410.169C884.677 410.19 884.793 410.117 885.402 409.948C885.826 409.128 886.022 409.162 885.755 408.203C884.677 404.317 880.139 402.262 876.848 400.627C876.728 400.568 876.607 400.511 876.487 400.454C874.042 401.52 870.468 402.653 869.616 405.5C869 407.561 869.931 409.276 871.037 410.923C871.507 411.624 872.004 412.301 872.507 412.98C872.513 417.663 872.616 422.341 872.002 426.994C869.136 422.085 860.727 405.484 854.735 404.554C853.284 404.329 851.922 404.664 850.516 404.969L849.93 404.5C848.605 401.837 847.406 399.368 844.417 398.331C842.953 397.823 841.319 397.899 839.942 398.637C838.209 399.565 837.098 401.133 836.605 403.02C835.886 405.774 836.614 408.505 838.125 410.846C838.835 411.946 839.718 412.933 840.584 413.911L840.156 414.784C837.201 412.897 833.482 408.445 830.092 407.8C822.409 406.336 823.441 433.511 815.237 439.687C810.972 442.898 805.975 442.019 801.084 441.329C796.205 435.982 793.625 431.184 791.187 424.361C791.846 422.247 792.435 419.839 793.856 418.097C797.533 413.59 803.249 414.24 808.403 413.811C810.806 413.61 812.458 413.565 814.071 411.644C814.601 409.071 813.003 406.685 811.704 404.579C810.108 401.992 810.383 398.66 808.794 396.447C805.394 391.712 802.302 393.335 798.802 385.719C801.882 387.629 805.52 390.272 809.35 389.848C810.834 389.684 811.346 389.107 812.295 388.04C813.25 384.873 812.023 382.402 810.899 379.467C815.201 375.048 817.211 372.625 817.876 366.409C820.66 364.723 823.294 362.881 825.938 360.985C827.696 361.325 829.482 361.61 831.274 361.386C833.869 361.061 836.717 359.561 838.272 357.431C841.01 353.678 840.193 347.562 837.583 343.93C835.966 341.68 833.651 339.857 832.661 337.198C830.941 332.583 830.493 326.892 829.691 322.015C831.123 323.362 832.33 324.717 834.32 325.125C835.751 324.755 835.806 324.695 836.754 323.555C836.995 322.655 837.132 322.048 836.847 321.117C836.429 319.751 835.397 318.57 834.141 317.904C831.815 316.669 829.606 317.752 827.303 318.488C825.861 317.917 824.592 317.257 823.005 317.469C821.938 318.56 821.979 319.707 821.842 321.142ZM870.215 380.497C869.564 387.06 872.958 392.206 876.97 397.119C879.336 400.017 883.089 404.097 886.989 404.492C887.803 404.574 888.423 404.561 889.212 404.404C890.406 399.773 889.296 395.89 886.904 391.812C884.25 387.286 879.139 381.829 873.895 380.654C872.711 380.389 871.421 380.461 870.215 380.497Z"/>
	<path fill="#7AB2BA" d="M627.31 298.709C630.241 294.443 636.471 283.095 642.126 282.71C643.039 282.648 643.746 283.086 644.519 283.493C645.319 284.548 645.566 284.87 645.541 286.275C645.491 289.016 643.424 292.119 641.339 293.747C637.498 296.746 632.888 297.49 629.356 301.18L627.31 298.709Z"/>
	<path fill="#7AB2BA" d="M461.26 339.677C481.089 318.182 503.155 299.411 528.41 284.524C528.109 287.018 523.731 291.078 521.966 293.016C513.809 301.973 505.313 310.666 495.906 318.328C488.604 324.276 480.497 329.568 473.721 336.124C468.357 341.314 464.154 347.205 460.057 353.397C458.777 349.361 460.391 343.715 461.26 339.677Z"/>
	<path fill="#4D2524" d="M755.61 326.041C753.953 326.061 752.184 325.978 750.58 325.537C745.617 324.17 741.535 320.374 739.188 315.872C737.422 312.482 736.488 308.353 737.763 304.641C739.089 300.779 741.757 299.228 745.232 297.535C750.637 297.405 754.6 298.333 759.356 300.799C761.953 305.433 764.008 311.134 762.979 316.493C762.115 320.992 759.329 323.668 755.61 326.041ZM755.469 311.061C755.363 310.761 755.253 310.463 755.151 310.161C754.748 308.971 754.695 307.864 754.67 306.62C753.571 304.954 752.451 304.327 750.5 303.916C748.803 303.559 746.221 303.385 744.706 304.432C743.711 305.119 743.361 306.047 743.419 307.232C743.491 308.72 744.469 310.313 745.104 311.615C745.511 312.447 745.371 312.086 745.595 312.984C745.912 313.795 746.234 314.627 746.663 315.386C747.772 317.346 749.607 318.909 751.835 319.39C753.441 319.737 754.285 319.201 755.557 318.293C757.008 315.583 756.314 313.882 755.469 311.061Z"/>
	<path fill="#7AB2BA" d="M583.438 330.415C588.593 301.258 610.412 312.952 627.31 298.709L629.356 301.18L627.111 305.523L629.691 311.855C622.722 312.784 618.407 313.225 613.871 319.142C610.054 324.122 607.732 330.223 603.807 335.137C600.377 339.434 593.928 341.837 592.109 347.044C591.301 345.865 590.232 345.322 589.054 344.551C587.713 339.561 585.769 335.018 583.438 330.415Z"/>
	<path fill="#D0FBE4" d="M755.469 311.061C752.108 312.181 749.175 312.927 745.595 312.984C745.371 312.086 745.511 312.447 745.104 311.615C744.469 310.313 743.491 308.72 743.419 307.232C743.361 306.047 743.711 305.119 744.706 304.432C746.221 303.385 748.803 303.559 750.5 303.916C752.451 304.327 753.571 304.954 754.67 306.62C754.695 307.864 754.748 308.971 755.151 310.161C755.253 310.463 755.363 310.761 755.469 311.061Z"/>
	<path fill="#FEFEFE" d="M745.595 312.984C749.175 312.927 752.108 312.181 755.469 311.061C756.314 313.882 757.008 315.583 755.557 318.293C754.285 319.201 753.441 319.737 751.835 319.39C749.607 318.909 747.772 317.346 746.663 315.386C746.234 314.627 745.912 313.795 745.595 312.984Z"/>
	<path fill="#7AB2BA" d="M820.243 322.34L821.842 321.142C825.907 325.155 826.397 329.986 826.653 335.447L825.692 336.167C824.308 331.376 822.264 326.884 820.243 322.34Z"/>
	<path fill="#D0FBE4" d="M794.087 357.556C792.995 357.183 791.911 356.795 791.077 355.966C787.881 352.789 783.031 344.759 782.937 340.232C784.805 340.343 785.982 340.551 787.429 341.891C791.237 345.416 793.835 352.381 794.087 357.556Z"/>
	<path fill="#D0FBE4" d="M629.712 382.806C629.896 382.67 630.082 382.537 630.265 382.399C635.161 378.72 632.246 373.001 640.183 374C643.539 374.423 647.32 376.061 649.393 378.835Q649.619 379.132 649.813 379.451Q650.007 379.77 650.167 380.108Q650.327 380.445 650.45 380.798Q650.574 381.15 650.66 381.514Q650.746 381.877 650.793 382.247Q650.841 382.618 650.85 382.991Q650.859 383.365 650.828 383.737Q650.798 384.109 650.729 384.476C650.417 386.149 649.613 388.309 647.999 389.129C646.572 389.853 644.814 389.396 643.434 388.786C639.116 386.875 636.161 383.049 631.092 384.004L629.712 382.806Z"/>
	<path fill="#7AB2BA" d="M620.471 390.404C617.739 386.841 611.156 381.979 611.248 377.321C611.9 376.399 611.983 376.095 613.171 375.9C618.753 374.982 625.79 379.318 629.712 382.806L631.092 384.004C627.725 386.851 624.562 388.761 620.471 390.404Z"/>
	<path fill="#4D2524" d="M889.212 404.404C888.423 404.561 887.803 404.574 886.989 404.492C883.089 404.097 879.336 400.017 876.97 397.119C872.958 392.206 869.564 387.06 870.215 380.497C871.421 380.461 872.711 380.389 873.895 380.654C879.139 381.829 884.25 387.286 886.904 391.812C889.296 395.89 890.406 399.773 889.212 404.404Z"/>
	<path fill="#7AB2BA" d="M849.93 404.5L850.516 404.969C850.268 409.369 851.376 414.033 852.103 418.371C849.17 415.508 846.169 412.612 844.012 409.093C842.94 407.344 842.211 405.87 842.751 403.81C844.86 402.423 847.292 405.295 849.93 404.5Z"/>
	<path fill="#7AB2BA" d="M840.584 413.911C844.769 417.384 848.936 421.049 853.688 423.733C855.483 427.658 858.305 435.509 862.573 437.109C862.826 437.203 863.098 437.238 863.361 437.303C864.156 436.462 864.107 436.34 864.105 435.217C864.095 429.574 856.851 415.348 855.06 408.488C857.749 412.942 867.852 431.893 872.488 433.321C873.355 433.588 873.717 433.258 874.518 432.958C877.526 429.59 877.098 424.167 877.147 419.921C879.02 425.742 880.564 433.153 886.442 436.269C888.1 437.149 890.018 437.713 891.792 438.32C891.682 438.491 891.573 438.664 891.461 438.835C885.358 448.106 882.616 446.843 881.399 459.392C875.354 456.241 869.723 454.349 863.134 452.708C862.797 448.809 862.551 444.428 859.331 441.707C856.806 439.574 853.173 439.12 850.015 438.634C849.909 430.647 849.164 423.459 843.172 417.456C842.218 416.5 841.207 415.63 840.156 414.784L840.584 413.911Z"/>
	<path fill="#D0FBE4" d="M822.459 441.671C827.538 434.893 827.762 427.492 829.153 419.485C832.395 419.231 835.819 419.176 839.014 418.62C842.653 424.188 844.388 429.48 845.811 435.947C843.467 434.903 840.548 433.235 837.959 434.363C836.776 434.879 836.194 436.094 835.879 437.275C835.169 439.93 835.898 442.801 836.202 445.479C830.629 445.625 824.951 445.724 819.461 446.757C820.542 445.092 821.54 443.431 822.459 441.671Z"/>
	<path fill="#7AB2BA" d="M444.106 545.029C445.653 537.588 446.974 529.96 449.324 522.726C452.916 523.419 456.51 524.177 460.133 524.683C464.047 529.463 467.65 534.078 469.95 539.864C475.331 553.408 473.261 566.893 492.226 568.817C496.216 569.221 500.333 569.047 504.342 569.017C503.171 575.171 502.231 581.227 501.98 587.502C493.429 593.591 484.376 598.885 482.408 610.146C481.761 613.844 481.855 617.894 482.189 621.629C467.747 608.392 451.272 563.889 444.106 545.029Z"/>
	<path fill="#D0FBE4" d="M508.278 561.496C508.144 561.638 508.016 561.785 507.877 561.92C505.522 564.2 503.178 563.866 500.163 563.734C477.253 562.724 482.679 555.091 475.761 538.979C473.553 533.837 470.464 530.049 466.717 525.947C474.379 526.168 482.07 527.748 489.692 528.626C488.316 535.194 486.989 542.764 488.477 549.421C491.467 562.789 502.034 555.405 507.716 559.699C508.42 560.232 508.214 560.688 508.278 561.496Z"/>
	<path fill="#5B8F99" d="M619.737 818.602C614.733 818.388 609.833 817.61 604.924 816.651C544.736 804.898 474.735 763.949 440.335 712.33C433.449 701.997 434.061 691.311 433.18 679.367C429.793 633.405 435.196 590.058 444.106 545.029C451.272 563.889 467.747 608.392 482.189 621.629C488.429 643.045 497.224 651.88 511.626 667.98C516.961 673.944 522.145 680.153 525.861 687.286C530.402 696 533.256 706.085 535.969 715.512C543.295 740.965 548.65 767.606 563.569 790.009C567.195 795.454 571.407 801.273 576.679 805.255Q577.798 806.103 579.014 806.802C581.562 808.263 585.488 809.573 588.448 808.797C589.557 808.506 590.744 807.94 591.225 806.835C594.547 799.199 574.861 775.275 585.202 770.215C590.882 767.435 598.832 771.644 602.327 764.118C604.234 760.014 603.448 755.35 602.825 751.05L607.999 748.972C619.323 755.422 635.919 757.64 648.829 759.125Q642.845 774.591 635.558 789.487Q628.272 804.384 619.737 818.602Z"/>
	<path fill="#D0FBE4" d="M597.394 748.991C596.552 752.866 599.566 757.018 598.069 760.623C595.212 767.502 587.249 762.209 582.507 764.393C581.059 765.06 580.157 766.143 579.551 767.586C577.38 772.761 578.206 783.635 580.25 788.833C581.579 792.213 583.597 795.326 584.97 798.724C585.559 800.184 586.414 802.061 585.77 803.604C584.389 803.801 583.651 803.723 582.396 803.053C577.793 800.595 573.423 794.441 570.536 790.22C556.96 770.369 550.571 747.556 544.779 724.547C541.331 710.851 537.981 695.955 530.824 683.663C518.67 662.785 494.326 647.61 488.291 623.427C481.527 596.325 499.91 603.311 506.051 589.481C509.773 581.1 506.849 571.673 513.574 561.083C516.771 556.048 521.277 553.456 526.968 552.13C531.295 551.79 535.704 552.401 540.017 552.793C536.298 556.218 531.589 560.14 530.733 565.399C531.129 566.776 531.221 566.829 532.349 567.729C537.163 565.978 539.842 559.676 544.85 557.21L545.4 556.945C550.27 560.171 553.551 565.218 557.591 569.375C561.742 569.669 566.801 570.251 570.508 572.203C575.028 574.582 577.841 579.357 581.933 582.384C588.578 587.301 598.857 589.525 603.387 596.864C607.419 603.398 603.687 612.779 611.016 617.451C615.565 620.35 620.937 622.279 625.776 624.673C635.089 629.278 644.167 635.004 653.886 638.687C658.185 640.317 662.848 641.211 667.272 642.469C671.088 643.554 675.351 645.052 678.095 648.044C679.579 649.662 680.362 651.633 680.173 653.839C679.488 661.821 670.451 667.344 665.163 672.457C653.435 683.796 654.229 701.139 643.967 710.179C636.934 716.375 625.195 714.164 618.772 720.345C613.941 724.994 618.689 729.326 618.259 734.558C617.601 742.552 603.32 743.421 597.827 748.575C597.681 748.712 597.538 748.852 597.394 748.991Z"/>
	<path fill="#FEFEFE" d="M594.654 846.34C584.384 855.395 572.097 863.681 558.555 866.731C547.01 869.332 537.819 866.537 527.991 860.329C479.283 829.562 451.439 773.757 439.125 719.184C443.195 721.991 447.853 729.576 451.239 733.624C456.224 739.582 461.547 745.555 467.218 750.863Q469.138 752.652 471.091 754.406Q473.045 756.159 475.03 757.876Q477.015 759.593 479.032 761.273Q481.049 762.953 483.096 764.595Q485.144 766.237 487.221 767.841Q489.299 769.445 491.406 771.01Q493.513 772.575 495.649 774.101Q497.785 775.626 499.948 777.112Q502.112 778.598 504.302 780.044Q506.493 781.489 508.71 782.894Q510.928 784.299 513.17 785.662Q515.413 787.026 517.681 788.347Q519.949 789.669 522.241 790.948Q524.532 792.227 526.847 793.464Q529.163 794.7 531.5 795.894Q533.838 797.087 536.197 798.237Q538.557 799.387 540.937 800.493Q543.317 801.599 545.718 802.661Q548.118 803.723 550.538 804.74Q552.958 805.757 555.396 806.729Q557.834 807.701 560.29 808.628Q562.745 809.554 565.218 810.435Q567.69 811.316 570.179 812.151Q572.667 812.986 575.17 813.775Q577.674 814.563 580.191 815.306Q582.709 816.048 585.24 816.743Q587.771 817.439 590.314 818.087Q592.858 818.735 595.412 819.336Q597.967 819.937 600.533 820.491Q603.099 821.045 605.674 821.551Q608.25 822.057 610.834 822.515Q613.419 822.973 616.011 823.383Q606.219 835.687 594.654 846.34Z"/>
	<path fill="#5B8F99" d="M736.168 767.892C742.308 767.826 748.608 766.356 754.625 765.227C780.766 760.323 805.035 752.251 828.877 740.449C838.111 735.878 845.243 728.999 855.402 727.078C826.612 759.635 792.349 784.405 752.877 802.464C742.767 807.09 732.093 811.988 721.204 814.384C729.816 796.21 735.392 781.518 735.701 761.122C736.55 763 736.166 765.816 736.168 767.892Z"/>
	<path fill="#4D2524" d="M567.137 893.81C566.807 893.516 566.599 892.918 566.396 892.522C566.45 892.088 566.364 891.613 566.557 891.22C567.731 888.823 582.025 884.826 585.172 883.307C593.764 879.161 602.153 874.977 610.191 869.803C637.645 852.13 660.657 826.026 676.322 797.505C681.959 787.241 685.691 776.127 691.354 765.88C691.772 766.3 691.908 766.593 691.981 767.21C692.349 770.35 689.621 775.851 688.434 778.796C682.171 794.327 675.076 809.177 665.53 822.981C643.621 854.659 605.614 886.744 567.137 893.81Z"/>
	<path fill="#4D2524" d="M583.299 904.375C583.064 903.207 582.596 901.5 583.482 900.515C586.269 897.416 606.735 888.876 611.774 886.299C618.491 882.865 625.28 879.29 631.556 875.094C669.907 849.458 693.809 817.477 716.596 777.99C717.58 782.669 706.764 800.687 704.125 805.374C679.789 848.601 631.51 890.803 583.299 904.375Z"/>
	<path fill="#7AB2BA" d="M284.935 876.874L285.442 877.162C295.074 882.707 303.849 889.73 313.492 895.266C352.044 917.396 395.702 934.119 439.982 939.628C451.332 941.04 463.022 941.972 474.461 942.067C481.504 942.126 488.938 940.907 495.882 942.282C506.269 944.339 516.595 949.695 526.666 953.141C526.477 953.215 526.292 953.297 526.101 953.362C516.187 956.776 491.109 958.036 479.835 958.874Q461.74 960.067 443.619 960.775Q425.498 961.484 407.365 961.708Q389.232 961.932 371.099 961.672Q352.966 961.411 334.847 960.666Q316.728 959.921 298.635 958.693Q280.542 957.464 262.488 955.752Q244.434 954.04 226.433 951.846Q208.431 949.653 190.495 946.979C163.813 943.259 122.684 937.418 98.9065 925.949C95.8162 924.459 92.1233 922.619 91.0383 919.089C90.5689 917.562 90.85 916.155 91.6811 914.817C103.047 896.514 211.423 884.561 235.284 882.183Q250.369 880.793 265.467 879.563C271.695 879.004 278.43 878.708 284.468 877.012C284.624 876.968 284.779 876.92 284.935 876.874Z"/>
</svg>
